<?xml version="1.0" standalone="no"?>
<!DOCTYPE svg PUBLIC "-//W3C//DTD SVG 20010904//EN"
 "http://www.w3.org/TR/2001/REC-SVG-20010904/DTD/svg10.dtd">
<svg version="1.0" xmlns="http://www.w3.org/2000/svg"
 width="688.000000pt" height="1024.000000pt" viewBox="0 0 688.000000 1024.000000"
 preserveAspectRatio="xMidYMid meet">

<g transform="translate(0.000000,1024.000000) scale(0.100000,-0.100000)"
fill="#000000" stroke="none">
<path d="M415 4998 c-26 -23 -27 -28 -21 -72 10 -66 93 -226 172 -332 103
-138 187 -227 303 -320 326 -262 718 -422 1255 -512 143 -24 182 -34 197 -51
11 -12 26 -21 33 -21 49 0 163 -132 222 -255 64 -134 77 -205 78 -435 1 -241
-10 -295 -96 -469 -113 -228 -269 -319 -630 -365 -70 -9 -134 -19 -141 -22
-17 -6 -264 -330 -291 -381 -17 -32 -19 -58 -19 -257 0 -121 3 -231 7 -244 l8
-23 508 3 508 3 39 41 c46 50 96 76 194 104 267 74 1020 97 1362 41 189 -31
277 -63 345 -125 l55 -51 479 1 c347 0 482 4 490 12 9 9 6 79 -9 284 l-22 273
-55 160 c-31 88 -63 165 -72 172 -8 6 -43 14 -77 18 -229 24 -409 61 -495 100
-61 28 -149 108 -191 174 -42 65 -61 153 -67 321 -6 125 -4 157 14 230 57 238
255 537 477 723 176 147 371 246 990 502 247 102 435 185 548 241 68 33 74 47
83 196 7 94 6 99 -19 135 -15 21 -43 51 -63 67 -48 38 -98 42 -549 51 -192 3
-534 15 -760 26 -225 11 -531 24 -680 30 -305 13 -2105 18 -2147 6 -16 -4 -34
-20 -44 -39 l-16 -31 -452 6 c-491 7 -708 21 -1076 69 -349 45 -341 45 -375
16z m2830 -228 c253 -17 644 -21 880 -9 145 7 526 10 1030 8 440 -2 940 -3
1110 -2 176 0 298 -3 282 -7 -38 -11 -105 -13 -757 -13 -3081 1 -3435 -1
-3462 -19 -29 -19 -46 -57 -31 -67 6 -3 7 -42 3 -91 l-7 -85 -1 83 c-1 46 -6
91 -11 100 -5 9 -11 35 -12 56 l-4 40 225 4 c124 2 227 6 229 8 8 8 387 4 526
-6z m-907 -655 c0 -73 -1 -76 -8 -30 -4 28 -10 97 -13 155 l-5 105 13 -75 c7
-41 13 -111 13 -155z m15 -185 c3 -41 2 -54 -3 -35 -8 31 -13 112 -6 104 2 -2
6 -33 9 -69z m203 -1497 c-22 -67 -74 -149 -164 -262 -77 -97 -212 -238 -223
-234 -4 1 -25 -14 -48 -33 -42 -36 -241 -116 -376 -151 -33 -9 -72 -22 -86
-29 -28 -14 -111 -15 -103 -2 3 5 -6 3 -20 -4 -30 -13 -39 -8 -30 15 3 10 23
18 52 22 26 4 67 13 92 21 25 7 95 23 155 34 179 34 270 74 380 168 144 122
286 304 348 444 34 77 47 84 23 11z m2164 -437 c115 -84 313 -153 513 -177
164 -19 203 -29 97 -23 -223 12 -449 69 -577 146 -64 38 -158 129 -179 173
-12 25 -8 22 28 -17 24 -25 77 -71 118 -102z m-230 104 c0 -5 -7 -10 -15 -10
-8 0 -15 5 -15 10 0 6 7 10 15 10 8 0 15 -4 15 -10z"/>
</g>
</svg>
